<?xml version="1.0" encoding="utf-8"?>
<!-- Generator: Adobe Illustrator 16.0.0, SVG Export Plug-In . SVG Version: 6.00 Build 0)  -->
<!DOCTYPE svg PUBLIC "-//W3C//DTD SVG 1.1//EN" "http://www.w3.org/Graphics/SVG/1.1/DTD/svg11.dtd">
<svg version="1.1" id="Capa_1" xmlns="http://www.w3.org/2000/svg" xmlns:xlink="http://www.w3.org/1999/xlink" x="0px" y="0px"
	 width="465.2px" height="465.2px" viewBox="0 0 465.2 465.2" enable-background="new 0 0 465.2 465.2" xml:space="preserve">
<g>
	<path fill="#6E9BC5" stroke="#020202" stroke-width="8" stroke-miterlimit="10" d="M189.438,415.554
		c-15.271-2.787-29.919-7.535-43.811-14.154c-0.164-0.088-0.311-0.188-0.483-0.267c-3.273-1.566-6.542-3.244-9.708-4.998
		c-0.011-0.014-0.031-0.022-0.048-0.029c-5.812-3.254-11.483-6.854-16.993-10.796C38.049,327.767,18.73,214.496,75.332,132.811
		c12.308-17.756,27.202-32.569,43.807-44.309c0.205-0.146,0.409-0.289,0.612-0.435c58.513-40.99,137.964-43.752,200.096-1.631
		l-13.344,19.602c-3.709,5.456-1.428,9.433,5.067,8.838l57.965-5.276c6.502-0.594,10.393-6.313,8.643-12.698l-15.565-57.018
		c-1.743-6.392-6.204-7.157-9.918-1.702l-13.375,19.648c-45.597-31.118-100.284-42.984-154.565-33.415
		c-5.467,0.962-10.857,2.139-16.173,3.51c-0.041,0.007-0.074,0.012-0.107,0.02c-0.205,0.051-0.414,0.119-0.613,0.176
		c-46.807,12.22-87.646,39.976-116.787,79.576c-0.246,0.296-0.499,0.585-0.731,0.908c-0.969,1.327-1.931,2.684-2.872,4.042
		c-1.54,2.225-3.058,4.505-4.51,6.786c-0.182,0.275-0.32,0.554-0.479,0.832C18.433,158.151,6.834,201.95,8.823,246.542
		c0.005,0.146-0.004,0.293,0,0.444c0.193,4.356,0.533,8.771,0.994,13.119c0.025,0.281,0.086,0.546,0.132,0.827
		c0.477,4.371,1.075,8.753,1.825,13.134c7.621,44.699,28.36,84.92,59.437,116.217c0.072,0.072,0.147,0.152,0.22,0.229
		c0.025,0.028,0.054,0.046,0.079,0.07c8.35,8.373,17.431,16.117,27.21,23.119c25.591,18.334,54.087,30.452,84.69,36.036
		c9.286,1.695,18.155-4.589,19.822-14.024C204.897,426.271,198.721,417.245,189.438,415.554z"/>
	<path fill="#6E9BC5" stroke="#000000" stroke-width="8" stroke-miterlimit="10" d="M209.229,121.027
		c-7.638-0.089-13.897,6.135-13.989,13.887l-1.64,139.967l125.138,67.646c2.013,1.092,4.177,1.62,6.312,1.646
		c5,0.058,9.864-2.655,12.375-7.457c3.583-6.855,1.031-15.356-5.708-18.996l-110.282-59.624l1.437-122.859
		C222.961,127.483,216.857,121.117,209.229,121.027z"/>
</g>
<text transform="matrix(1.1159 0 0 1 209.7329 453.9526)"><tspan x="0" y="0" font-family="'IM_FELL_French_Canon_Roman'" font-size="126.8582">A</tspan><tspan x="95.65" y="0" font-family="'IM_FELL_French_Canon_Roman'" font-size="84.5721">CHIE</tspan><tspan x="340.908" y="0" font-family="'IM_FELL_French_Canon_Roman'" font-size="126.8582">   </tspan><tspan x="444.803" y="0" font-family="'IM_FELL_French_Canon_Roman'" font-size="84.5721">E</tspan></text>
<text transform="matrix(0.9248 0 0 1 597.5532 500.5435)" fill="#6E9BC5" font-family="'IM_FELL_French_Canon_Roman'" font-size="143.0745">V</text>
<g opacity="0.7">
	<path fill="#6E9BC5" stroke="#020202" stroke-width="8" stroke-miterlimit="10" d="M189.438,415.554
		c-15.271-2.787-29.919-7.535-43.81-14.154c-0.164-0.088-0.311-0.188-0.483-0.267c-3.273-1.566-6.542-3.244-9.708-4.998
		c-0.011-0.014-0.031-0.022-0.048-0.029c-5.812-3.254-11.483-6.854-16.993-10.796C38.049,327.767,18.73,214.497,75.332,132.811
		c12.308-17.756,27.202-32.569,43.807-44.309c0.205-0.146,0.409-0.289,0.612-0.435c58.514-40.99,137.964-43.752,200.096-1.631
		l-13.344,19.602c-3.709,5.456-1.428,9.433,5.067,8.838l57.965-5.276c6.502-0.594,10.393-6.313,8.643-12.698l-15.565-57.018
		c-1.743-6.392-6.204-7.157-9.918-1.702l-13.375,19.648c-45.597-31.118-100.284-42.984-154.565-33.415
		c-5.467,0.962-10.857,2.139-16.173,3.51c-0.041,0.007-0.074,0.012-0.107,0.02c-0.205,0.051-0.414,0.119-0.613,0.176
		c-46.808,12.22-87.646,39.976-116.787,79.576c-0.246,0.296-0.499,0.585-0.731,0.908c-0.969,1.327-1.931,2.684-2.872,4.042
		c-1.54,2.225-3.058,4.505-4.51,6.786c-0.182,0.275-0.32,0.554-0.479,0.832C18.433,158.151,6.834,201.95,8.823,246.542
		c0.005,0.146-0.004,0.293,0,0.444c0.193,4.356,0.533,8.771,0.994,13.119c0.025,0.281,0.086,0.546,0.132,0.827
		c0.477,4.371,1.075,8.753,1.825,13.134c7.621,44.699,28.36,84.92,59.437,116.217c0.072,0.072,0.147,0.152,0.22,0.229
		c0.025,0.028,0.054,0.046,0.079,0.07c8.35,8.373,17.431,16.117,27.21,23.119c25.591,18.334,54.087,30.452,84.691,36.036
		c9.285,1.695,18.154-4.589,19.821-14.024C204.897,426.271,198.721,417.245,189.438,415.554z"/>
</g>
<g id="Layer_2">
</g>
</svg>
